<!-- Generator: Adobe Illustrator 24.2.1, SVG Export Plug-In  -->
<svg version="1.1" xmlns="http://www.w3.org/2000/svg" xmlns:xlink="http://www.w3.org/1999/xlink" x="0px" y="0px" width="275.7px"
     height="315.1px" viewBox="0 0 275.7 315.1" style="overflow:visible;enable-background:new 0 0 275.7 315.1;"
     xml:space="preserve">
<defs>
</defs>
<g>
    <path style="fill:#FFFFFF;" d="M275.7,206.8V29.5c0-16.3-13.2-29.5-29.5-29.5H59.1C26.5,0,0,26.5,0,59.1V256
        c0,32.6,26.5,59.1,59.1,59.1H256c10.9,0,19.7-8.8,19.7-19.1c0-7.2-4.1-13.2-9.8-16.7v-50.1C271.9,223.3,275.7,215.5,275.7,206.8z
         M88.1,78.8h118.2c6,0,10.4,4.4,10.4,9.8c0,5.4-4.4,9.8-9.8,9.8H88.1c-4.9,0-9.3-4.4-9.3-9.8C78.8,83.2,83.2,78.8,88.1,78.8z
         M88.1,118.2h118.2c6,0,10.4,4.4,10.4,9.8c0,5.4-4.4,9.8-9.8,9.8H88.1c-4.9,0-9.3-4.4-9.3-9.8C78.8,122.6,83.2,118.2,88.1,118.2z
         M236.3,275.7H59.1c-10.9,0-19.7-8.8-19.7-19.7c0-10.9,8.8-19.7,19.7-19.7h177.3V275.7z"/>
</g>
</svg>
