<!-- Generator: Adobe Illustrator 24.2.1, SVG Export Plug-In  -->
<svg version="1.1" xmlns="http://www.w3.org/2000/svg" xmlns:xlink="http://www.w3.org/1999/xlink" x="0px" y="0px" width="544.2px"
     height="544.2px" viewBox="0 0 544.2 544.2" style="overflow:visible;enable-background:new 0 0 544.2 544.2;"
     xml:space="preserve">
<defs>
</defs>
<g>
    <g>
        <path style="fill:#6B4C90;" d="M272.1,0C2.1,0,0,121.8,0,272.1s2.1,272.1,272.1,272.1s272.1-121.8,272.1-272.1S542.1,0,272.1,0z"
            />
    </g>
    <g>
        <path style="fill:#FFFFFF;" d="M410,321.3V144.1c0-16.3-13.2-29.5-29.5-29.5H193.3c-32.6,0-59.1,26.5-59.1,59.1v196.9
            c0,32.6,26.5,59.1,59.1,59.1h196.9c10.9,0,19.7-8.8,19.7-19.1c0-7.2-4.1-13.2-9.8-16.7v-50.1C406.2,337.8,410,330.1,410,321.3z
             M222.3,193.3h118.2c6,0,10.4,4.4,10.4,9.8c0,5.4-4.4,9.8-9.8,9.8H222.3c-4.9,0-9.3-4.4-9.3-9.8
            C213,197.8,217.5,193.3,222.3,193.3z M222.3,232.7h118.2c6,0,10.4,4.4,10.4,9.8s-4.4,9.8-9.8,9.8H222.3c-4.9,0-9.3-4.4-9.3-9.8
            S217.5,232.7,222.3,232.7z M370.6,390.3H193.3c-10.9,0-19.7-8.8-19.7-19.7c0-10.9,8.8-19.7,19.7-19.7h177.3V390.3z"/>
    </g>
</g>
</svg>
