<?xml version="1.0" encoding="UTF-8"?>
<svg width="1024px" height="1024px" viewBox="0 0 1024 1024" version="1.1" xmlns="http://www.w3.org/2000/svg" xmlns:xlink="http://www.w3.org/1999/xlink">
    <!-- Generator: Sketch 52.5 (67469) - http://www.bohemiancoding.com/sketch -->
    <title>icon</title>
    <desc>Created with Sketch.</desc>
    <defs>
        <linearGradient x1="-2.22044605e-14%" y1="2.83276945e-14%" x2="100%" y2="100%" id="linearGradient-1">
            <stop stop-color="#89369C" offset="0%"></stop>
            <stop stop-color="#541785" offset="100%"></stop>
        </linearGradient>
    </defs>
    <g id="icon" stroke="none" stroke-width="1" fill="none" fill-rule="evenodd">
        <path d="M30,812 L30,24 C30,17.372583 35.372583,12 42,12 L624,12 C890.666667,12 1024,145.333333 1024,412 C1024,812 1024,212 1024,612 C1024,878.666667 890.666667,1012 624,1012 L313.426805,1012 C306.799388,1012 301.426805,1006.62742 301.426805,1000 C301.426805,997.483459 302.217966,995.030603 303.688393,992.988343 L430.408393,816.988343 C432.66348,813.856278 436.287368,812 440.146805,812 L584,812 C717.333333,812 784,745.333333 784,612 C784,478.666667 784,412 784,412 C784,278.666667 717.333333,212 584,212 L276,212 C272.686292,212 270,214.686292 270,218 L270,812 L288,812 C291.313708,812 294,814.686292 294,818 C294,819.298221 293.578933,820.561423 292.8,821.6 L159.6,999.2 C155.62355,1004.50193 148.101934,1005.57645 142.8,1001.6 C141.890332,1000.91775 141.082251,1000.10967 140.4,999.2 L7.2,821.6 C5.2117749,818.949033 5.7490332,815.188225 8.4,813.2 C9.43857703,812.421067 10.7017787,812 12,812 L30,812 Z" id="Path" fill="url(#linearGradient-1)"></path>
    </g>
</svg>